<svg width="20" height="20" viewBox="0 0 20 20" fill="none" xmlns="http://www.w3.org/2000/svg">
<path fill-rule="evenodd" clip-rule="evenodd" d="M12.9995 5H14.9995V10C14.9995 12.4709 15.189 13 15.9995 13C17.3038 13 17.9995 12.3832 17.9995 10C17.9995 4.71065 15.3465 2 9.99961 2C6.53557 2.00044 3.46535 4.23027 2.39334 7.52426C1.32133 10.8182 2.49111 14.428 5.29139 16.4671C8.09167 18.5062 11.8862 18.5114 14.6921 16.48L15.8649 18.1C12.3576 20.6393 7.61443 20.6328 4.11408 18.0839C0.613729 15.535 -0.848493 11.0228 0.49152 6.90532C1.83153 2.78783 5.66931 0.00054425 9.99949 0C16.4609 0 19.9995 3.6156 19.9995 10C19.9995 13.5449 18.3584 15 15.9995 15C14.6556 15 13.8865 14.5667 13.4643 13.6048C12.5656 14.4688 11.3446 15 9.99949 15C7.23806 15 4.99949 12.7614 4.99949 10C4.99949 7.23858 7.23806 5 9.99949 5C11.1251 5 12.1638 5.37195 12.9995 5.99963V5ZM12.9995 10C12.9995 11.6569 11.6563 13 9.99949 13C8.34263 13 6.99949 11.6569 6.99949 10C6.99949 8.34315 8.34263 7 9.99949 7C11.6563 7 12.9995 8.34315 12.9995 10Z" fill="#3E4456"/>
</svg>
