<svg width="22" height="19" viewBox="0 0 22 19" fill="none" xmlns="http://www.w3.org/2000/svg">
<path fill-rule="evenodd" clip-rule="evenodd" d="M16.531 1.08753L13.5805 6.25281H8.41952L5.46895 1.08753C5.03021 0.319476 3.74424 0.416626 3.46234 1.23913L0.212341 10.7215C0.0838108 11.0966 0.231808 11.5022 0.584884 11.7425L10.3349 18.3802C10.7261 18.6465 11.2739 18.6465 11.6651 18.3802L21.4151 11.7425C21.7682 11.5022 21.9162 11.0966 21.7876 10.7215L18.5376 1.23913C18.2557 0.416626 16.9698 0.319476 16.531 1.08753ZM15.219 7.62508L17.2473 4.07426L19.4991 10.6443L11 16.4304L2.50088 10.6443L4.75268 4.07426L6.78103 7.62508C6.96453 7.94633 7.33965 8.14926 7.74999 8.14926H14.25C14.6603 8.14926 15.0354 7.94633 15.219 7.62508Z" fill="#3E4456"/>
</svg>
